{
    "asset": {
        "version": "2.0",
        "generator": "Open Asset Import Library (assimp v5.2.0)"
    },
    "extensionsUsed": [
        "KHR_materials_pbrSpecularGlossiness",
        "FB_ngon_encoding"
    ],
    "accessors": [
        {
            "bufferView": 0,
            "byteOffset": 0,
            "componentType": 5126,
            "count": 838,
            "type": "VEC3",
            "max": [
                1.3742485046386719,
                6.247332572937012,
                3.209859848022461
            ],
            "min": [
                -1.371422529220581,
                -2.1028435230255129,
                2.01242995262146
            ]
        },
        {
            "bufferView": 1,
            "byteOffset": 0,
            "componentType": 5126,
            "count": 838,
            "type": "VEC3",
            "max": [
                1.0,
                1.0,
                1.0
            ],
            "min": [
                -1.0,
                -1.0,
                -1.0
            ]
        },
        {
            "bufferView": 2,
            "byteOffset": 0,
            "componentType": 5126,
            "count": 838,
            "type": "VEC2",
            "max": [
                0.9923710823059082,
                0.42334306240081789
            ],
            "min": [
                0.003615856170654297,
                0.001910865306854248
            ]
        },
        {
            "bufferView": 3,
            "byteOffset": 0,
            "componentType": 5125,
            "count": 2004,
            "type": "SCALAR",
            "max": [
                837
            ],
            "min": [
                0
            ]
        },
        {
            "bufferView": 4,
            "byteOffset": 0,
            "componentType": 5126,
            "count": 5565,
            "type": "VEC3",
            "max": [
                2.6287527084350588,
                3.415377140045166,
                2.175304412841797
            ],
            "min": [
                -2.6287569999694826,
                -3.4172797203063967,
                0.05399983003735542
            ]
        },
        {
            "bufferView": 5,
            "byteOffset": 0,
            "componentType": 5126,
            "count": 5565,
            "type": "VEC3",
            "max": [
                1.0,
                1.0,
                1.0
            ],
            "min": [
                -1.0,
                -1.0,
                -1.0
            ]
        },
        {
            "bufferView": 6,
            "byteOffset": 0,
            "componentType": 5126,
            "count": 5565,
            "type": "VEC2",
            "max": [
                1.0645304918289185,
                6.133543968200684
            ],
            "min": [
                0.005977959372103214,
                -7.582573890686035
            ]
        },
        {
            "bufferView": 7,
            "byteOffset": 0,
            "componentType": 5125,
            "count": 13116,
            "type": "SCALAR",
            "max": [
                5564
            ],
            "min": [
                0
            ]
        },
        {
            "bufferView": 8,
            "byteOffset": 0,
            "componentType": 5126,
            "count": 163,
            "type": "VEC3",
            "max": [
                2.378835678100586,
                3.2656455039978029,
                1.1159414052963257
            ],
            "min": [
                -2.3746845722198488,
                -2.785446882247925,
                0.05399983003735542
            ]
        },
        {
            "bufferView": 9,
            "byteOffset": 0,
            "componentType": 5126,
            "count": 163,
            "type": "VEC3",
            "max": [
                1.0,
                0.9954167604446411,
                0.9999039173126221
            ],
            "min": [
                -1.0,
                -0.9855118989944458,
                -0.9956583976745606
            ]
        },
        {
            "bufferView": 10,
            "byteOffset": 0,
            "componentType": 5126,
            "count": 163,
            "type": "VEC2",
            "max": [
                1.0642648935317994,
                6.133543968200684
            ],
            "min": [
                0.21013930439949037,
                -7.582573890686035
            ]
        },
        {
            "bufferView": 11,
            "byteOffset": 0,
            "componentType": 5125,
            "count": 420,
            "type": "SCALAR",
            "max": [
                162
            ],
            "min": [
                0
            ]
        }
    ],
    "buffers": [
        {
            "byteLength": 272272,
            "uri": "Tiger.bin"
        }
    ],
    "bufferViews": [
        {
            "buffer": 0,
            "byteOffset": 0,
            "byteLength": 10056,
            "target": 34962
        },
        {
            "buffer": 0,
            "byteOffset": 10056,
            "byteLength": 10056,
            "target": 34962
        },
        {
            "buffer": 0,
            "byteOffset": 20112,
            "byteLength": 6704,
            "target": 34962
        },
        {
            "buffer": 0,
            "byteOffset": 26816,
            "byteLength": 8016,
            "target": 34963
        },
        {
            "buffer": 0,
            "byteOffset": 34832,
            "byteLength": 66780,
            "target": 34962
        },
        {
            "buffer": 0,
            "byteOffset": 101612,
            "byteLength": 66780,
            "target": 34962
        },
        {
            "buffer": 0,
            "byteOffset": 168392,
            "byteLength": 44520,
            "target": 34962
        },
        {
            "buffer": 0,
            "byteOffset": 212912,
            "byteLength": 52464,
            "target": 34963
        },
        {
            "buffer": 0,
            "byteOffset": 265376,
            "byteLength": 1956,
            "target": 34962
        },
        {
            "buffer": 0,
            "byteOffset": 267332,
            "byteLength": 1956,
            "target": 34962
        },
        {
            "buffer": 0,
            "byteOffset": 269288,
            "byteLength": 1304,
            "target": 34962
        },
        {
            "buffer": 0,
            "byteOffset": 270592,
            "byteLength": 1680,
            "target": 34963
        }
    ],
    "images": [
        {
            "uri": "Texture_TigerHighRes_1024.dds"
        },
        {
            "uri": "Texture_tiger_chain.dds"
        }
    ],
    "materials": [
        {
            "name": "03 - Default",
            "pbrMetallicRoughness": {
                "baseColorTexture": {
                    "index": 0
                },
                "baseColorFactor": [
                    0.3686274588108063,
                    0.3686274588108063,
                    0.3686274588108063,
                    1.0
                ],
                "metallicFactor": 0.0,
                "roughnessFactor": 0.8585786819458008
            },
            "extensions": {
                "KHR_materials_pbrSpecularGlossiness": {
                    "diffuseFactor": [
                        0.3686274588108063,
                        0.3686274588108063,
                        0.3686274588108063,
                        1.0
                    ],
                    "specularFactor": [
                        0.8999999761581421,
                        0.8999999761581421,
                        0.8999999761581421
                    ],
                    "glossinessFactor": 0.14142131805419923,
                    "diffuseTexture": {
                        "index": 0
                    }
                }
            }
        },
        {
            "name": "08 - Default",
            "pbrMetallicRoughness": {
                "baseColorTexture": {
                    "index": 1
                },
                "baseColorFactor": [
                    0.2352941334247589,
                    0.2352941334247589,
                    0.2352941334247589,
                    1.0
                ],
                "metallicFactor": 0.0,
                "roughnessFactor": 0.8585786819458008
            },
            "extensions": {
                "KHR_materials_pbrSpecularGlossiness": {
                    "diffuseFactor": [
                        0.2352941334247589,
                        0.2352941334247589,
                        0.2352941334247589,
                        1.0
                    ],
                    "specularFactor": [
                        0.8999999761581421,
                        0.8999999761581421,
                        0.8999999761581421
                    ],
                    "glossinessFactor": 0.14142131805419923,
                    "diffuseTexture": {
                        "index": 1
                    }
                }
            }
        }
    ],
    "meshes": [
        {
            "name": "Object01",
            "primitives": [
                {
                    "extensions": {
                        "FB_ngon_encoding": {}
                    },
                    "mode": 4,
                    "material": 0,
                    "indices": 3,
                    "attributes": {
                        "POSITION": 0,
                        "NORMAL": 1,
                        "TEXCOORD_0": 2
                    }
                }
            ]
        },
        {
            "name": "Box05",
            "primitives": [
                {
                    "extensions": {
                        "FB_ngon_encoding": {}
                    },
                    "mode": 4,
                    "material": 0,
                    "indices": 7,
                    "attributes": {
                        "POSITION": 4,
                        "NORMAL": 5,
                        "TEXCOORD_0": 6
                    }
                },
                {
                    "extensions": {
                        "FB_ngon_encoding": {}
                    },
                    "mode": 4,
                    "material": 1,
                    "indices": 11,
                    "attributes": {
                        "POSITION": 8,
                        "NORMAL": 9,
                        "TEXCOORD_0": 10
                    }
                }
            ]
        }
    ],
    "nodes": [
        {
            "name": "RootNode",
            "children": [
                1
            ]
        },
        {
            "name": "Root_$AssimpFbx$_PreRotation",
            "matrix": [
                1.0,
                0.0,
                0.0,
                0.0,
                0.0,
                -4.371138828673793e-8,
                -1.0,
                0.0,
                0.0,
                1.0,
                -4.371138828673793e-8,
                0.0,
                0.0,
                0.0,
                0.0,
                1.0
            ],
            "children": [
                2
            ]
        },
        {
            "name": "Root_$AssimpFbx$_Rotation",
            "matrix": [
                -4.371138828673793e-8,
                0.0,
                1.0,
                0.0,
                -0.0000026226043701171877,
                1.0,
                -1.1463768302688582e-13,
                0.0,
                -1.0,
                -0.0000026226043701171877,
                -4.371138828673793e-8,
                0.0,
                0.0,
                0.0,
                0.0,
                1.0
            ],
            "children": [
                3
            ]
        },
        {
            "name": "Root",
            "children": [
                4,
                7
            ]
        },
        {
            "name": "Top",
            "matrix": [
                1.0,
                0.0,
                0.0,
                0.0,
                0.0,
                1.0,
                0.0,
                0.0,
                0.0,
                0.0,
                1.0,
                0.0,
                2.022108316421509,
                -8.038183452185876e-10,
                2.371542684453942e-10,
                1.0
            ],
            "children": [
                5,
                6
            ]
        },
        {
            "name": "GunDummy",
            "matrix": [
                -4.371138828673793e-8,
                0.0,
                -1.0,
                0.0,
                4.3488793011192686e-8,
                1.0,
                -1.900955597699595e-15,
                0.0,
                1.0,
                -4.3488793011192686e-8,
                -4.371138828673793e-8,
                0.0,
                0.3296230137348175,
                6.184160232543945,
                1.0351322229928961e-11,
                1.0
            ]
        },
        {
            "name": "Object01",
            "matrix": [
                -4.371138828673793e-8,
                0.0,
                -1.0,
                0.0,
                0.0008630751981399953,
                0.9999996423721314,
                -3.772621451347824e-11,
                0.0,
                0.9999996423721314,
                -0.0008630751981399953,
                -4.3711374075883216e-8,
                0.0,
                -2.022108316421509,
                1.7688566344986612e-7,
                2.473207749709161e-10,
                1.0
            ],
            "mesh": 0
        },
        {
            "name": "Box05",
            "matrix": [
                -4.371138828673793e-8,
                0.0,
                -1.0,
                0.0,
                -6.039832101123466e-7,
                1.0,
                2.6400944622205319e-14,
                0.0,
                1.0,
                6.039832101123466e-7,
                -4.371138828673793e-8,
                0.0,
                0.0,
                0.0,
                0.0,
                1.0
            ],
            "mesh": 1
        }
    ],
    "samplers": [
        {},
        {}
    ],
    "scenes": [
        {
            "nodes": [
                0
            ]
        }
    ],
    "textures": [
        {
            "source": 0,
            "sampler": 0
        },
        {
            "source": 1,
            "sampler": 1
        }
    ],
    "scene": 0
}