{
    "asset": {
        "version": "2.0",
        "generator": "Open Asset Import Library (assimp v5.2.0)"
    },
    "extensionsUsed": [
        "KHR_materials_pbrSpecularGlossiness",
        "FB_ngon_encoding"
    ],
    "accessors": [
        {
            "bufferView": 0,
            "byteOffset": 0,
            "componentType": 5126,
            "count": 361,
            "type": "VEC3",
            "max": [
                44.983768463134769,
                260.0,
                7.000000953674316
            ],
            "min": [
                -55.00919723510742,
                -265.0,
                -4.76837158203125e-7
            ]
        },
        {
            "bufferView": 1,
            "byteOffset": 0,
            "componentType": 5126,
            "count": 361,
            "type": "VEC3",
            "max": [
                1.0,
                1.0,
                1.0
            ],
            "min": [
                -1.0,
                -1.0,
                -0.0000010912458492384758
            ]
        },
        {
            "bufferView": 2,
            "byteOffset": 0,
            "componentType": 5125,
            "count": 804,
            "type": "SCALAR",
            "max": [
                360
            ],
            "min": [
                0
            ]
        },
        {
            "bufferView": 3,
            "byteOffset": 0,
            "componentType": 5126,
            "count": 384,
            "type": "VEC3",
            "max": [
                24.99851417541504,
                502.70660400390627,
                7.600651264190674
            ],
            "min": [
                -30.038530349731447,
                -32.64947509765625,
                -2.384185791015625e-7
            ]
        },
        {
            "bufferView": 4,
            "byteOffset": 0,
            "componentType": 5126,
            "count": 384,
            "type": "VEC3",
            "max": [
                1.0,
                1.0,
                0.7092446684837341
            ],
            "min": [
                -1.0,
                -1.0,
                -0.7031229138374329
            ]
        },
        {
            "bufferView": 5,
            "byteOffset": 0,
            "componentType": 5125,
            "count": 576,
            "type": "SCALAR",
            "max": [
                383
            ],
            "min": [
                0
            ]
        }
    ],
    "buffers": [
        {
            "byteLength": 23400,
            "uri": "AircraftCarrier_Col_Move.bin"
        }
    ],
    "bufferViews": [
        {
            "buffer": 0,
            "byteOffset": 0,
            "byteLength": 4332,
            "target": 34962
        },
        {
            "buffer": 0,
            "byteOffset": 4332,
            "byteLength": 4332,
            "target": 34962
        },
        {
            "buffer": 0,
            "byteOffset": 8664,
            "byteLength": 3216,
            "target": 34963
        },
        {
            "buffer": 0,
            "byteOffset": 11880,
            "byteLength": 4608,
            "target": 34962
        },
        {
            "buffer": 0,
            "byteOffset": 16488,
            "byteLength": 4608,
            "target": 34962
        },
        {
            "buffer": 0,
            "byteOffset": 21096,
            "byteLength": 2304,
            "target": 34963
        }
    ],
    "materials": [
        {
            "name": "Collision",
            "pbrMetallicRoughness": {
                "baseColorFactor": [
                    0.3019607961177826,
                    0.3019607961177826,
                    0.3019607961177826,
                    1.0
                ],
                "metallicFactor": 0.0,
                "roughnessFactor": 0.8585786819458008
            },
            "extensions": {
                "KHR_materials_pbrSpecularGlossiness": {
                    "diffuseFactor": [
                        0.3019607961177826,
                        0.3019607961177826,
                        0.3019607961177826,
                        1.0
                    ],
                    "specularFactor": [
                        0.8999999761581421,
                        0.8999999761581421,
                        0.8999999761581421
                    ],
                    "glossinessFactor": 0.14142131805419923
                }
            }
        }
    ],
    "meshes": [
        {
            "name": "1_Col",
            "primitives": [
                {
                    "extensions": {
                        "FB_ngon_encoding": {}
                    },
                    "mode": 4,
                    "material": 0,
                    "indices": 2,
                    "attributes": {
                        "POSITION": 0,
                        "NORMAL": 1
                    }
                }
            ]
        },
        {
            "name": "4_Col",
            "primitives": [
                {
                    "extensions": {
                        "FB_ngon_encoding": {}
                    },
                    "mode": 4,
                    "material": 0,
                    "indices": 5,
                    "attributes": {
                        "POSITION": 3,
                        "NORMAL": 4
                    }
                }
            ]
        }
    ],
    "nodes": [
        {
            "name": "RootNode",
            "children": [
                1,
                5
            ]
        },
        {
            "name": "1_Col_$AssimpFbx$_Translation",
            "matrix": [
                1.0,
                0.0,
                0.0,
                0.0,
                0.0,
                1.0,
                0.0,
                0.0,
                0.0,
                0.0,
                1.0,
                0.0,
                -17.863773345947267,
                3.800325393676758,
                -235.04757690429688,
                1.0
            ],
            "children": [
                2
            ]
        },
        {
            "name": "1_Col_$AssimpFbx$_PreRotation",
            "matrix": [
                1.0,
                0.0,
                0.0,
                0.0,
                0.0,
                -4.371138828673793e-8,
                -1.0,
                0.0,
                0.0,
                1.0,
                -4.371138828673793e-8,
                0.0,
                0.0,
                0.0,
                0.0,
                1.0
            ],
            "children": [
                3
            ]
        },
        {
            "name": "1_Col_$AssimpFbx$_GeometricTranslation",
            "matrix": [
                1.0,
                0.0,
                0.0,
                0.0,
                0.0,
                1.0,
                0.0,
                0.0,
                0.0,
                0.0,
                1.0,
                0.0,
                17.863773345947267,
                0.0,
                -3.800325393676758,
                1.0
            ],
            "children": [
                4
            ]
        },
        {
            "name": "1_Col",
            "mesh": 0
        },
        {
            "name": "4_Col_$AssimpFbx$_PreRotation",
            "matrix": [
                1.0,
                0.0,
                0.0,
                0.0,
                0.0,
                -4.371138828673793e-8,
                -1.0,
                0.0,
                0.0,
                1.0,
                -4.371138828673793e-8,
                0.0,
                0.0,
                0.0,
                0.0,
                1.0
            ],
            "children": [
                6
            ]
        },
        {
            "name": "4_Col",
            "mesh": 1
        }
    ],
    "scenes": [
        {
            "nodes": [
                0
            ]
        }
    ],
    "scene": 0
}