{
    "asset": {
        "version": "2.0",
        "generator": "Open Asset Import Library (assimp v5.2.0)"
    },
    "extensionsUsed": [
        "KHR_materials_pbrSpecularGlossiness",
        "FB_ngon_encoding"
    ],
    "accessors": [
        {
            "bufferView": 0,
            "byteOffset": 0,
            "componentType": 5126,
            "count": 46,
            "type": "VEC3",
            "max": [
                0.06111123412847519,
                0.5256258845329285,
                0.07549750059843064
            ],
            "min": [
                -0.06111123412847519,
                -0.5256258845329285,
                -0.07549743354320526
            ]
        },
        {
            "bufferView": 1,
            "byteOffset": 0,
            "componentType": 5126,
            "count": 46,
            "type": "VEC3",
            "max": [
                1.0,
                1.0,
                1.0
            ],
            "min": [
                -1.0,
                -0.9999882578849793,
                -1.0
            ]
        },
        {
            "bufferView": 2,
            "byteOffset": 0,
            "componentType": 5126,
            "count": 46,
            "type": "VEC2",
            "max": [
                0.8466078042984009,
                0.9859968423843384
            ],
            "min": [
                0.02638453245162964,
                0.5218315720558167
            ]
        },
        {
            "bufferView": 3,
            "byteOffset": 0,
            "componentType": 5125,
            "count": 90,
            "type": "SCALAR",
            "max": [
                45
            ],
            "min": [
                0
            ]
        },
        {
            "bufferView": 4,
            "byteOffset": 0,
            "componentType": 5126,
            "count": 124,
            "type": "VEC3",
            "max": [
                0.055902376770973209,
                0.9515593647956848,
                0.435432493686676
            ],
            "min": [
                -0.056084923446178439,
                -0.20261846482753755,
                -0.10526921600103378
            ]
        },
        {
            "bufferView": 5,
            "byteOffset": 0,
            "componentType": 5126,
            "count": 124,
            "type": "VEC3",
            "max": [
                1.0,
                1.0,
                1.0
            ],
            "min": [
                -1.0,
                -0.9683457612991333,
                -1.0
            ]
        },
        {
            "bufferView": 6,
            "byteOffset": 0,
            "componentType": 5126,
            "count": 124,
            "type": "VEC2",
            "max": [
                0.9909765720367432,
                0.9820600152015686
            ],
            "min": [
                0.03125,
                0.005274474620819092
            ]
        },
        {
            "bufferView": 7,
            "byteOffset": 0,
            "componentType": 5125,
            "count": 246,
            "type": "SCALAR",
            "max": [
                123
            ],
            "min": [
                0
            ]
        }
    ],
    "buffers": [
        {
            "byteLength": 6784,
            "uri": "Handgun.bin"
        }
    ],
    "bufferViews": [
        {
            "buffer": 0,
            "byteOffset": 0,
            "byteLength": 552,
            "target": 34962
        },
        {
            "buffer": 0,
            "byteOffset": 552,
            "byteLength": 552,
            "target": 34962
        },
        {
            "buffer": 0,
            "byteOffset": 1104,
            "byteLength": 368,
            "target": 34962
        },
        {
            "buffer": 0,
            "byteOffset": 1472,
            "byteLength": 360,
            "target": 34963
        },
        {
            "buffer": 0,
            "byteOffset": 1832,
            "byteLength": 1488,
            "target": 34962
        },
        {
            "buffer": 0,
            "byteOffset": 3320,
            "byteLength": 1488,
            "target": 34962
        },
        {
            "buffer": 0,
            "byteOffset": 4808,
            "byteLength": 992,
            "target": 34962
        },
        {
            "buffer": 0,
            "byteOffset": 5800,
            "byteLength": 984,
            "target": 34963
        }
    ],
    "images": [
        {
            "uri": "handgun.dds"
        }
    ],
    "materials": [
        {
            "name": "handgun",
            "pbrMetallicRoughness": {
                "baseColorTexture": {
                    "index": 0
                },
                "baseColorFactor": [
                    0.5879999995231628,
                    0.5879999995231628,
                    0.5879999995231628,
                    1.0
                ],
                "metallicFactor": 0.0,
                "roughnessFactor": 0.8585786819458008
            },
            "extensions": {
                "KHR_materials_pbrSpecularGlossiness": {
                    "diffuseFactor": [
                        0.5879999995231628,
                        0.5879999995231628,
                        0.5879999995231628,
                        1.0
                    ],
                    "specularFactor": [
                        0.8999999761581421,
                        0.8999999761581421,
                        0.8999999761581421
                    ],
                    "glossinessFactor": 0.14142131805419923,
                    "diffuseTexture": {
                        "index": 0
                    }
                }
            }
        }
    ],
    "meshes": [
        {
            "name": "handgun02",
            "primitives": [
                {
                    "mode": 4,
                    "material": 0,
                    "indices": 3,
                    "attributes": {
                        "POSITION": 0,
                        "NORMAL": 1,
                        "TEXCOORD_0": 2
                    }
                }
            ]
        },
        {
            "name": "handgun01",
            "primitives": [
                {
                    "mode": 4,
                    "material": 0,
                    "indices": 7,
                    "attributes": {
                        "POSITION": 4,
                        "NORMAL": 5,
                        "TEXCOORD_0": 6
                    }
                }
            ]
        }
    ],
    "nodes": [
        {
            "name": "RootNode",
            "children": [
                1
            ]
        },
        {
            "name": "WeaponPointDummy_$AssimpFbx$_PreRotation",
            "matrix": [
                1.0,
                0.0,
                0.0,
                0.0,
                0.0,
                -4.371138828673793e-8,
                -1.0,
                0.0,
                0.0,
                1.0,
                -4.371138828673793e-8,
                0.0,
                0.0,
                0.0,
                0.0,
                1.0
            ],
            "children": [
                2
            ]
        },
        {
            "name": "WeaponPointDummy",
            "children": [
                3,
                8,
                9
            ]
        },
        {
            "name": "AnimDummy_$AssimpFbx$_Translation",
            "matrix": [
                1.0,
                0.0,
                0.0,
                0.0,
                0.0,
                1.0,
                0.0,
                0.0,
                0.0,
                0.0,
                1.0,
                0.0,
                -6.28804457392107e-8,
                0.36459457874298098,
                0.29765915870666506,
                1.0
            ],
            "children": [
                4
            ]
        },
        {
            "name": "AnimDummy_$AssimpFbx$_GeometricScaling",
            "matrix": [
                0.9999999403953552,
                0.0,
                0.0,
                0.0,
                0.0,
                4.2787394523620609,
                0.0,
                0.0,
                0.0,
                0.0,
                0.9999999403953552,
                0.0,
                0.0,
                0.0,
                0.0,
                1.0
            ],
            "children": [
                5
            ]
        },
        {
            "name": "AnimDummy",
            "children": [
                6
            ]
        },
        {
            "name": "AnimDummy_$AssimpFbx$_GeometricScalingInverse",
            "matrix": [
                1.0000001192092896,
                0.0,
                0.0,
                0.0,
                0.0,
                0.23371368646621705,
                0.0,
                0.0,
                0.0,
                0.0,
                1.0000001192092896,
                0.0,
                0.0,
                0.0,
                0.0,
                1.0
            ],
            "children": [
                7
            ]
        },
        {
            "name": "handgun02",
            "matrix": [
                1.0,
                0.0,
                0.0,
                0.0,
                0.0,
                1.0,
                0.0,
                0.0,
                0.0,
                0.0,
                1.0,
                0.0,
                -0.00038521431270055473,
                0.045916348695755008,
                -0.010817557573318482,
                1.0
            ],
            "mesh": 0
        },
        {
            "name": "handgun01",
            "matrix": [
                1.0,
                0.0,
                0.0,
                0.0,
                0.0,
                1.0,
                0.0,
                0.0,
                0.0,
                0.0,
                1.0,
                0.0,
                -6.789115936101098e-10,
                0.0,
                -0.08887190371751785,
                1.0
            ],
            "mesh": 1
        },
        {
            "name": "GunDummy",
            "matrix": [
                1.0,
                0.0,
                0.0,
                0.0,
                0.0,
                1.0,
                0.0,
                0.0,
                0.0,
                0.0,
                1.0,
                0.0,
                -3.7224303639504799e-8,
                0.9515386819839478,
                0.2976591885089874,
                1.0
            ]
        }
    ],
    "samplers": [
        {}
    ],
    "scenes": [
        {
            "nodes": [
                0
            ]
        }
    ],
    "textures": [
        {
            "source": 0,
            "sampler": 0
        }
    ],
    "scene": 0
}